<svg width="54" height="54" viewBox="0 0 54 54" fill="none" xmlns="http://www.w3.org/2000/svg">
<rect width="54" height="54" rx="27" fill="url(#paint0_linear_24_1919)"/>
<circle cx="26.9998" cy="27" r="15.84" stroke="white" stroke-width="0.72"/>
<path d="M19.0295 29.5V28.0744C18.6983 28.0168 18.4103 27.8992 18.1655 27.7216C17.9255 27.5392 17.7407 27.3064 17.6111 27.0232C17.4815 26.74 17.4167 26.4184 17.4167 26.0584V24.46H18.2735V26.116C18.2735 26.3416 18.3215 26.548 18.4175 26.7352C18.5135 26.9224 18.6503 27.0736 18.8279 27.1888C19.0055 27.2992 19.2167 27.3544 19.4615 27.3544C19.7111 27.3544 19.9247 27.2992 20.1023 27.1888C20.2799 27.0736 20.4143 26.9224 20.5055 26.7352C20.6015 26.548 20.6495 26.3416 20.6495 26.116V24.46H21.5135V26.0584C21.5135 26.4184 21.4463 26.74 21.3119 27.0232C21.1823 27.3064 20.9951 27.5392 20.7503 27.7216C20.5103 27.904 20.2223 28.0216 19.8863 28.0744V29.5H19.0295ZM24.6798 29.5936C24.2814 29.5936 23.919 29.5264 23.5926 29.392C23.271 29.2528 22.995 29.0632 22.7646 28.8232C22.539 28.5832 22.3638 28.3048 22.239 27.988C22.1142 27.6712 22.0518 27.3328 22.0518 26.9728C22.0518 26.6128 22.1142 26.2768 22.239 25.9648C22.3638 25.648 22.539 25.3696 22.7646 25.1296C22.995 24.8896 23.271 24.7024 23.5926 24.568C23.919 24.4336 24.2814 24.3664 24.6798 24.3664C25.083 24.3664 25.4454 24.4336 25.767 24.568C26.0886 24.7024 26.3646 24.8896 26.595 25.1296C26.8254 25.3696 27.003 25.648 27.1278 25.9648C27.2526 26.2768 27.315 26.6128 27.315 26.9728C27.315 27.3328 27.2526 27.6712 27.1278 27.988C27.003 28.3048 26.8254 28.5832 26.595 28.8232C26.3646 29.0632 26.0886 29.2528 25.767 29.392C25.4454 29.5264 25.083 29.5936 24.6798 29.5936ZM24.6798 28.8304C24.9342 28.8304 25.1694 28.7848 25.3854 28.6936C25.6014 28.6024 25.7886 28.4728 25.947 28.3048C26.1102 28.132 26.235 27.9328 26.3214 27.7072C26.4078 27.4816 26.451 27.2368 26.451 26.9728C26.451 26.7088 26.4078 26.464 26.3214 26.2384C26.235 26.0128 26.1102 25.8184 25.947 25.6552C25.7886 25.4872 25.6014 25.3576 25.3854 25.2664C25.1694 25.1704 24.9342 25.1224 24.6798 25.1224C24.4254 25.1224 24.1902 25.1704 23.9742 25.2664C23.763 25.3576 23.5758 25.4872 23.4126 25.6552C23.2542 25.8184 23.1294 26.0128 23.0382 26.2384C22.9518 26.464 22.9086 26.7088 22.9086 26.9728C22.9086 27.2416 22.9518 27.4888 23.0382 27.7144C23.1294 27.9352 23.2542 28.132 23.4126 28.3048C23.5758 28.4728 23.763 28.6024 23.9742 28.6936C24.1902 28.7848 24.4254 28.8304 24.6798 28.8304ZM30.4595 29.5936C30.0611 29.5936 29.6987 29.5264 29.3723 29.392C29.0507 29.2528 28.7747 29.0632 28.5443 28.8232C28.3187 28.5832 28.1435 28.3048 28.0187 27.988C27.8939 27.6712 27.8315 27.3328 27.8315 26.9728C27.8315 26.6128 27.8939 26.2768 28.0187 25.9648C28.1435 25.648 28.3187 25.3696 28.5443 25.1296C28.7747 24.8896 29.0507 24.7024 29.3723 24.568C29.6987 24.4336 30.0611 24.3664 30.4595 24.3664C30.8627 24.3664 31.2251 24.4336 31.5467 24.568C31.8683 24.7024 32.1443 24.8896 32.3747 25.1296C32.6051 25.3696 32.7827 25.648 32.9075 25.9648C33.0323 26.2768 33.0947 26.6128 33.0947 26.9728C33.0947 27.3328 33.0323 27.6712 32.9075 27.988C32.7827 28.3048 32.6051 28.5832 32.3747 28.8232C32.1443 29.0632 31.8683 29.2528 31.5467 29.392C31.2251 29.5264 30.8627 29.5936 30.4595 29.5936ZM30.4595 28.8304C30.7139 28.8304 30.9491 28.7848 31.1651 28.6936C31.3811 28.6024 31.5683 28.4728 31.7267 28.3048C31.8899 28.132 32.0147 27.9328 32.1011 27.7072C32.1875 27.4816 32.2307 27.2368 32.2307 26.9728C32.2307 26.7088 32.1875 26.464 32.1011 26.2384C32.0147 26.0128 31.8899 25.8184 31.7267 25.6552C31.5683 25.4872 31.3811 25.3576 31.1651 25.2664C30.9491 25.1704 30.7139 25.1224 30.4595 25.1224C30.2051 25.1224 29.9699 25.1704 29.7539 25.2664C29.5427 25.3576 29.3555 25.4872 29.1923 25.6552C29.0339 25.8184 28.9091 26.0128 28.8179 26.2384C28.7315 26.464 28.6883 26.7088 28.6883 26.9728C28.6883 27.2416 28.7315 27.4888 28.8179 27.7144C28.9091 27.9352 29.0339 28.132 29.1923 28.3048C29.3555 28.4728 29.5427 28.6024 29.7539 28.6936C29.9699 28.7848 30.2051 28.8304 30.4595 28.8304ZM33.8776 29.5V24.46H35.9944C36.316 24.46 36.6088 24.5344 36.8728 24.6832C37.1416 24.8272 37.3552 25.0312 37.5136 25.2952C37.672 25.5544 37.7512 25.8568 37.7512 26.2024C37.7512 26.5432 37.672 26.8456 37.5136 27.1096C37.36 27.3736 37.1488 27.58 36.88 27.7288C36.616 27.8728 36.3184 27.9448 35.9872 27.9448H34.7344V29.5H33.8776ZM34.7344 27.1888H35.8864C36.0736 27.1888 36.2416 27.1504 36.3904 27.0736C36.544 26.9968 36.664 26.884 36.7504 26.7352C36.8416 26.5864 36.8872 26.4112 36.8872 26.2096C36.8872 25.9984 36.8416 25.8208 36.7504 25.6768C36.664 25.528 36.544 25.4152 36.3904 25.3384C36.2416 25.2568 36.076 25.216 35.8936 25.216H34.7344V27.1888Z" fill="white"/>
<defs>
<linearGradient id="paint0_linear_24_1919" x1="15.03" y1="2.25" x2="46.89" y2="30.15" gradientUnits="userSpaceOnUse">
<stop stop-color="#6DED0B"/>
<stop offset="1" stop-color="#239636"/>
</linearGradient>
</defs>
</svg>
